<svg id="Layer_1" data-name="Layer 1" xmlns="http://www.w3.org/2000/svg" xmlns:xlink="http://www.w3.org/1999/xlink" viewBox="0 0 86.01 48"><defs><style>.cls-1{fill:url(#linear-gradient);}.cls-2{fill:url(#linear-gradient-2);}.cls-3{fill:url(#linear-gradient-3);}.cls-4{fill:url(#linear-gradient-4);}.cls-5{fill:#ef3f4a;}</style><linearGradient id="linear-gradient" x1="-1192.99" y1="2.7" x2="-1192.99" y2="3.7" gradientTransform="matrix(44.79, 0, 0, -34.18, 53459.96, 139.53)" gradientUnits="userSpaceOnUse"><stop offset="0" stop-color="#da117a"/><stop offset="1" stop-color="#ef3f4a"/></linearGradient><linearGradient id="linear-gradient-2" x1="-1144.58" y1="3.28" x2="-1144.58" y2="4.28" gradientTransform="matrix(16.13, 0, 0, -35.02, 18513.78, 162.82)" xlink:href="#linear-gradient"/><linearGradient id="linear-gradient-3" x1="-1144.58" y1="3.28" x2="-1144.58" y2="4.28" gradientTransform="matrix(16.13, 0, 0, -35.02, 18527.15, 162.82)" xlink:href="#linear-gradient"/><linearGradient id="linear-gradient-4" x1="-1130.66" y1="-11.06" x2="-1130.66" y2="-10.06" gradientTransform="matrix(13.63, 0, 0, -21.66, 15486.09, -204.76)" xlink:href="#linear-gradient"/></defs><title>Gojji Logo</title><path id="Path_3" data-name="Path 3" class="cls-1" d="M42.1,15.76a10.45,10.45,0,0,0-7.16-2.69c-3.55,0-5.76,1.35-8.06,3.59-1.88,1.8-3.27,3.43-3.58,6.26a32.51,32.51,0,0,1-2.69,2.69l.9-12.54c-.6-.24-.8,0-1.79,0a8.08,8.08,0,0,0-3.58.9,12.34,12.34,0,0,0-4.48-.9A10.45,10.45,0,0,0,3.6,16.66a11.8,11.8,0,0,0-3.59,9A9,9,0,0,0,2.7,31.88a8.13,8.13,0,0,0,5.37,2.69c-2.45,2.13-4.48,4.61-4.48,7.16a5.47,5.47,0,0,0,2.69,4.48,5.41,5.41,0,0,0,3.58.9c2.34,0,4.78-.3,6.27-1.79a10.06,10.06,0,0,0,2.69-6.27l.9-9.85c1.31-.92,2.51-1.8,3.58-2.69A10.09,10.09,0,0,0,26,31.89a9.47,9.47,0,0,0,7.17,2.68A10.86,10.86,0,0,0,41.21,31a12.22,12.22,0,0,0,3.58-9A8.47,8.47,0,0,0,42.1,15.76ZM12.55,39.94c-.25,2.09-1.06,3.58-2.69,3.58a2.84,2.84,0,0,1-1.79-.9,2.48,2.48,0,0,1-.9-1.79c0-2.48,2.33-4.86,6.27-7.16Zm1.79-13.43c-1,2.59-2.64,3.58-4.48,3.58-1.1,0-2,0-2.69-.9a5.66,5.66,0,0,1-.9-3.58q0-.45,0-.9c.22-2.84.7-4.85,1.79-6.27s2.57-1.79,4.48-1.79a6.77,6.77,0,0,1,2.69,0ZM36.73,28.3c-1,1.56-2.17,2.69-3.58,2.69s-2-.7-2.69-1.8a8.55,8.55,0,0,1-.9-4.47c.07-2.42-.06-3.78.9-5.38s2.2-2.68,3.58-2.68a4,4,0,0,1,3.58,1.79,8.36,8.36,0,0,1,.9,4.47A10.65,10.65,0,0,1,36.73,28.3Z"/><path id="Path_4" data-name="Path 4" class="cls-2" d="M45.6,48A5.84,5.84,0,0,1,42,46.21a5.57,5.57,0,0,1-1.8-4.48c0-4.25,2.92-7.41,8.06-10.74.22-1.78.77-7.26,1.8-16.13a5.82,5.82,0,0,1,4.47-1.79c1.07,0,1.4-.21,1.79,0L52.76,39.94c-.28,2.55-.65,5-1.79,6.27S47.8,48,45.6,48Zm-1.8-4.48c.32.43.4.9.9.9,1,0,2.44-1.63,2.69-3.58l.9-7.16c-3,2.34-4.48,5.4-4.48,8.06C43.8,42.51,43.49,43.1,43.8,43.52Z"/><path id="Path_5" data-name="Path 5" class="cls-3" d="M59,48a5.89,5.89,0,0,1-3.58-1.79,5.53,5.53,0,0,1-1.79-4.48c0-4.25,2.92-7.41,8.06-10.74.21-1.78.76-7.26,1.79-16.13A5.84,5.84,0,0,1,68,13.07c1.06,0,1.4-.21,1.79,0L66.17,39.94c-.29,2.55-.66,5-1.79,6.27S61.2,48,59,48Zm-1.79-4.48a3,3,0,0,0,1.79.9c1,0,1.54-1.63,1.79-3.58l.9-7.16c-3,2.34-4.48,5.4-4.48,8.06C57.21,42.51,56.89,43.1,57.21,43.52Z"/><path id="Path_6" data-name="Path 6" class="cls-4" d="M76,13.34c.82-.29,1,0,1.79,0a11,11,0,0,1,2.69,0c-1.13,8.86-1.79,13.36-1.79,13.43a7.66,7.66,0,0,0,0,1.79,6.76,6.76,0,0,0,0,.9c.11.78-.1.9.9.9a3.29,3.29,0,0,0,2.69-1.79A10.76,10.76,0,0,0,84.05,25c.21.1,1.36.29,1.79.9s-.07.61,0,.9c-.6,2.37-1.27,4.81-2.69,6.27a7.22,7.22,0,0,1-5.37,1.79,6.35,6.35,0,0,1-4.48-1.79c-1-1-.9-2.06-.9-3.59a6.76,6.76,0,0,1,0-.9l1.79-13.44C74.55,14.63,75.17,13.62,76,13.34Z"/><path id="Path_7" data-name="Path 7" class="cls-5" d="M58.12,5.54c-.71,1.67-3.74,4.33-5.37,3.58s-1.64-4.64-.9-6.27S54.66-.55,56.33.16,58.83,3.91,58.12,5.54Z"/><path id="Path_8" data-name="Path 8" class="cls-5" d="M71.53,5.54c-.71,1.67-3.74,4.33-5.37,3.58s-1.64-4.64-.9-6.27S68.07-.55,69.74.16,72.24,3.91,71.53,5.54Z"/><path id="Path_9" data-name="Path 9" class="cls-5" d="M81.36,5.54C80.65,7.21,77.61,9.87,76,9.12s-.74-4.64,0-6.27S78.79-.55,80.46.16,82.1,3.91,81.36,5.54Z"/></svg>