<svg version="1.2" baseProfile="tiny-ps" xmlns="http://www.w3.org/2000/svg" viewBox="0 0 1513 1074" width="1513" height="1074">
	<title>LoanDepot_logo-svg</title>
	<style>
		tspan { white-space:pre }
		.shp0 { fill: #a6ce39 } 
		.shp1 { fill: #4a1079 } 
	</style>
	<g id="layer1">
		<g id="Page-1">
			<g id="Scrolled-state">
				<g id="logo-on-white">
					<path id="Path_12" class="shp0" d="M0.37 917.32L321.34 83.04C321.34 83.04 479.43 41.43 646.53 16.72C481.85 358.51 382.68 675.9 382.68 725.07C382.68 774.23 396.91 863.8 608.64 863.8C859.43 863.8 1178.77 710.38 1178.77 475.52C1178.77 788.45 842.98 986.58 472.95 986.58C312.76 988.25 153.31 964.93 0.37 917.48L0.37 917.32Z" />
					<path id="Path_13" class="shp1" d="M1178.71 477.57C1178.71 790.5 842.93 988.63 472.9 988.63C313.62 990.08 155.14 966.29 3.37 918.16C3.37 918.16 170.58 1073.79 592.68 1073.79C1014.78 1073.79 1512.18 811.86 1512.18 432.91C1512.18 -88.96 758.2 7.32 758.2 7.32L642.84 249.27C642.84 249.27 750.98 237.04 840.67 237.04C966.98 236.2 1178.71 291.4 1178.71 477.57L1178.71 477.57Z" />
				</g>
			</g>
		</g>
	</g>
</svg>